# xmcd
#
# Track frame offsets: 
#        150
#        8607
#        16822
#        22762
#        34430
#        47067
#        64422
#        87445
#        104822
#        127575
#        141940
#        157092
#        164112
#        169887
#        175665
#        179500
#        185327
#        190615
#        195900
#        216837
#        221942
#        228650
#        233372
#        250665
#        262615
#        273317
#        285425
#        293875
#        301180
#
# Disc length: 4111 seconds
#
# Revision: 2
# Processed by: cddbd v1.5.2PL0 Copyright (c) Steve Scherf et al.
# Submitted via: ExactAudioCopy v0.99pb4
#
DISCID=94100d1d
DTITLE=Varius Artist - Mulatós
DYEAR=1900
DGENRE=
TTITLE0=Halvány õszirózsa
TTITLE1=Én édes Katinkám
TTITLE2=Kis csónakom ...
TTITLE3=Sárgul már ...
TTITLE4=Oly távol, messze van hazám
TTITLE5=Az a rendes iparos
TTITLE6=Meghalnak a csillagok is egyszer
TTITLE7=Angyal az asszony
TTITLE8=Isten veled távoli kicsi falum
TTITLE9=Péntek este
TTITLE10=Rozi
TTITLE11=Nem fizet a tanács
TTITLE12=Recece, nincs a lánynak köténye
TTITLE13=Édesanyám csak egy a kérésem
TTITLE14=Már ezután úgy élem virágom
TTITLE15=Túl a Tiszán
TTITLE16=Most hullatja az akácfa
TTITLE17=Õsszel érik babám ...
TTITLE18=Egy kicsit mulatunk
TTITLE19=Megyen a hegyen a túrista
TTITLE20=Dadogó fox
TTITLE21=Duna-parti dunaparti
TTITLE22=Orgonafa árnyékában
TTITLE23=Kukorékol a kiskakas
TTITLE24=Lakodalom hetedhét országban
TTITLE25=Kondorosi csárda
TTITLE26=Ezekkel a kakasokkal baj van
TTITLE27=Szép kislány az Ica
TTITLE28=Hely de csuda jó kedvem van
EXTD=
EXTT0=
EXTT1=
EXTT2=
EXTT3=
EXTT4=
EXTT5=
EXTT6=
EXTT7=
EXTT8=
EXTT9=
EXTT10=
EXTT11=
EXTT12=
EXTT13=
EXTT14=
EXTT15=
EXTT16=
EXTT17=
EXTT18=
EXTT19=
EXTT20=
EXTT21=
EXTT22=
EXTT23=
EXTT24=
EXTT25=
EXTT26=
EXTT27=
EXTT28=
PLAYORDER=
